<svg xmlns="http://www.w3.org/2000/svg" viewBox="0 0 16 16" width="16" height="16" fill="none">
  <path fill="white" d="M8 0c-4.418 0-8 3.582-8 8 0 3.532 2.291 6.539 5.467 7.594.4.073.548-.173.548-.384 0-.19-.006-.693-.01-1.36-2.214.481-2.676-.746-2.676-.746-.362-.921-.885-1.167-.885-1.167-.723-.493.055-.484.055-.484.799.056 1.218.822 1.218.822.711 1.215 1.868.865 2.324.661.073-.517.279-.865.51-1.065-1.789-.196-3.639-.895-3.639-3.973 0-.877.314-1.595.827-2.158-.082-.198-.358-.997.076-2.074 0 0 .675-.216 2.208.826.643-.178 1.329-.267 2.004-.27.676.003 1.362.092 2.004.27 1.533-1.042 2.208-.826 2.208-.826.434 1.077.158 1.876.076 2.074.513.563.827 1.281.827 2.158 0 3.084-1.849 3.776-3.645 3.973.286.244.544.723.544 1.465 0 1.057-.01 1.914-.01 2.166 0 .214.145.462.553.384C13.709 14.539 16 11.532 16 8c0-4.418-3.582-8-8-8z"/>
</svg>
